<?xml version="1.0" encoding="utf-8"?>
<!-- Generator: Adobe Illustrator 19.1.0, SVG Export Plug-In . SVG Version: 6.00 Build 0)  -->
<svg version="1.1" id="Layer_1" xmlns="http://www.w3.org/2000/svg" xmlns:xlink="http://www.w3.org/1999/xlink" x="0px" y="0px"
	 viewBox="-105 -89.7 310.6 330.6" style="enable-background:new -105 -89.7 310.6 330.6;" xml:space="preserve">
<style type="text/css">
	.st0{fill:#FFE600;}
	.st1{fill:#8AD200;}
</style>
<g>
	<path class="st0" d="M17.6-49.6c5.5-3.2,11.5-5.5,17.9-5.2c0,5.5,0.2,11,0,16.7l-0.2-0.2c-0.5-0.2-0.7-0.2-1.2,0
		c-4.2,0.7-8.5,2.7-11,6.2c-2.2,2.5-3.2,6-3.2,9.5c0,10.7,0,21.4,0,32.1c0.2,4-1,7.7-2.2,11.5c-1.7,5-5,9.5-8.7,13.2
		c3,3,5.5,6,7.5,9.7c1.7,4,3,8.2,3.5,12.4c0,11.7,0,23.7,0,35.4c0,5.7,3.5,11.2,9,13.2c2.2,1,4.5,1.2,7,1.2c0,5.5,0,11.2,0,16.7
		c-5,0-10-0.7-14.4-3c-7-3.2-12.4-9.2-15.7-15.9c-1.5-4.2-2.7-8.7-2.7-13.2c0-10.2,0-20.4,0-30.9c0-2.2,0.2-4.2-0.5-6.2
		C0.4,46.8-6.3,42.3-13,42c0-5.5,0-11,0-16.2c6.5,0.2,12.9-4,15.2-10.2c0.7-1.7,1-3.7,1-5.7c0-8.5,0-16.9,0-25.4
		c0-4.5-0.2-8.7,0.7-13.2c1-4.5,2.5-9,5.5-12.7C11.1-44.6,14.4-47.3,17.6-49.6z"/>
	<path class="st0" d="M67.4-54.8c5-0.2,10,1,14.2,3.2c5.5,2.5,9.7,7,13.2,11.7c2.5,3.2,3.5,7.2,4.5,11c0.7,3.5,0.7,7.2,0.7,10.7
		c0,9.2,0,18.4,0,27.6c0,2.2,0.2,4.5,1,6.5c2,6,8.5,9.7,14.7,10c0,5.5,0,10.7,0,16.2c-4.5,0.2-9,2-11.7,5.5c-2.7,2.7-4,6.5-4,10.5
		c0,10.5,0,21.2,0,31.6c0,8-2.7,16.2-8.2,21.9c-3.2,3.7-7.5,6.7-12,8.7c-2.7,1-5.7,2-8.7,1.7c-0.5,0-1,0-1.5,0.2
		c-0.7,0.2-1.5,0.2-2.2,0.2c-0.2-3,0-5.7-0.2-8.7c0-2.5-0.2-5.2,0.2-7.7h0.5c0.7,0.2,1.2,0,2-0.2c4.7-0.7,9-3.5,11.5-7.7
		c1.5-2.5,2.2-5.5,2.2-8.5c0-11.5,0-22.7,0-34.1c0-3,0.7-6,1.7-8.7c1.5-5.2,5-9.7,8.7-13.4c-3-2.7-5.7-6.2-7.5-10c-1.5-4-3-8-3-12.4
		c0-11.7,0-23.7,0-35.4c-0.5-4.2-2.7-8.2-6-11.2c-2.2-2-5.2-3-8.2-3.7c-0.5-0.2-1-0.2-1.5,0l-0.5,0.2C67.2-43.9,67.4-49.3,67.4-54.8
		z"/>
</g>
<g>
	<path class="st1" d="M116-89.7c2.7,1,5,3,7.5,4c3.5,1.7,7,3.5,10.5,5.2c4.5,1.7,8.5,4.5,12.4,7c2.7,2,5.2,4.7,6.2,8
		c0.7,2,0,4.2-0.7,6.2c-2.7,0-5.5,0.2-8-0.7c-3.2-1-5.7-3.2-8.2-5.5c-5.5-6-9.5-12.9-15.2-18.9C119.2-86.2,117.2-87.7,116-89.7z"/>
	<path class="st1" d="M-22.2-85.4c2.2-1.2,4.5-2.7,6.7-3.7c-1.7,2.5-4.2,4.2-6,6.7c-4.2,4.7-7.5,10-11.5,14.7
		c-2.5,2.5-4.7,5.5-8.2,6.7c-3,1.2-6.2,1.5-9.5,1.2c-0.7-2.2-1.2-5-0.2-7.2c2-4.5,6.5-7,10.5-9.5C-34.4-79.5-28.2-82.5-22.2-85.4z"
		/>
	<path class="st1" d="M-60.3-68.8c2.2-2.2,4.2-4.7,7.2-6.2c-1,3.5-2,7-2.2,10.7c0,2.7-0.2,5.7-0.7,8.5c-1,5-5.2,8.5-9,11.5
		c-2.2-3.2-3.5-7.2-2.7-11.2C-66.8-60.5-63.8-65-60.3-68.8z"/>
	<path class="st1" d="M154.6-75c2.7,1.7,5.2,4,7,6.5c3.5,3.7,6.5,8.2,7.5,13.4c0.5,3.7-0.5,8-3,10.7c-3.2-2.7-6.7-5.7-8.2-10
		c-0.7-1.7-0.7-3.5-0.7-5.2c0-1.5,0-3-0.2-4.5C156.3-67.8,155.6-71.2,154.6-75z"/>
	<path class="st1" d="M156.8-64c0.2,1.5,0.2,3,0.2,4.5C156.8-61,156.8-62.5,156.8-64z"/>
	<path class="st1" d="M-74.7-51.1c1.7-2.2,3.2-5,5.7-6.5c-0.7,5.5-0.7,11.2,0,16.7c0,3,0.5,6.2-1,9c-1.5,3.5-3.7,7-6.7,9.7
		c-2.2-2.5-4.2-5.5-4.5-9c0.2-2,0.2-4,0-6C-80.5-42.1-77.5-46.6-74.7-51.1z"/>
	<path class="st1" d="M170.5-57.6c2.5,1.7,4,4.5,6,7c3.2,4.5,5.7,9.7,6.5,15.2c0.5,4.7-1.5,9.7-4.7,13.2c-1-0.5-1.7-1.5-2.5-2.2
		c-2.7-3.5-5.2-7.5-5.5-12.2c0-2.5,0.2-5.2,0.7-7.7c1-3.2,1-6.7,0-10C170.5-55.3,170.5-56.3,170.5-57.6z"/>
	<path class="st1" d="M-41.6-54.1c1.7-0.2,3.5-1.2,5.5-1.5c-3,3.7-6.5,7.2-10.7,9.5s-9.5,1.5-13.4-0.7c2.5-3,5.5-5.7,9.2-6.7
		C-47.9-54.3-44.6-53.6-41.6-54.1z"/>
	<path class="st1" d="M137.4-55.6c2,0.5,4,1.5,6.2,1.7c3,0.2,6-0.2,8.7,0.2c3.7,1,7,4,9.2,7c-3.7,1.7-8,2.7-12,1.2
		C144.6-47.6,140.9-51.6,137.4-55.6z"/>
	<path class="st1" d="M170.7-54.3c1,3.2,1,6.7,0,10C171-47.6,171-51.1,170.7-54.3z"/>
	<path class="st1" d="M148.1-39.4c2.2,1,4.5,2.5,7,3.2c3.2,1,6.7,0.5,9.7,2c3.7,1.7,6.2,5.5,8.5,9c-3.5,1-7.5,1.7-11,0.2
		C155.6-27.4,151.8-33.9,148.1-39.4z"/>
	<path class="st1" d="M-53.1-36.6c2.2-0.7,4-2,6.2-2.7c-0.7,1.7-2,3-3,4.5c-2,2.7-4,5.5-6.7,7.2c-2.2,1.7-5,2.7-8,3
		c-2.5,0.2-5-0.5-7.5-1c2.2-3.5,5-7.5,9-9.2C-59.8-35.9-56.3-35.4-53.1-36.6z"/>
	<path class="st1" d="M-81-36.9c0.2,2,0.2,4,0,6C-81.5-32.9-81.5-34.9-81-36.9z"/>
	<path class="st1" d="M-89.7-24.7c1.7-3.5,3.2-7.2,5.5-10.5c0.5,1.2,0.7,2.2,0.7,3.5c0,4,1,7.7,2,11.7c1.2,4,2.5,7.7,2,12
		c-0.7,4.7-3,9-5.7,12.9c-3.7-2.7-6.7-6.5-7.5-11.2C-93.9-12.5-92.2-19-89.7-24.7z"/>
	<path class="st1" d="M185.4-35.4c2.2,2.7,3.5,5.7,5,8.7c2.2,4.7,3.5,9.7,4,14.9c0.2,6.2-2.5,12.4-7.7,16.2c-1-0.2-1.2-1.2-1.7-2
		c-2.2-4-4.5-8.5-4.2-13.2c0-5.2,2.5-10,3.5-14.9C184.9-28.7,184.7-32.2,185.4-35.4z"/>
	<path class="st1" d="M-62.3-15.5c2.5-1,4.2-3,6.2-4.5c-1.2,4-3.2,7.7-5.5,11.2c-2.5,4.5-7,8-12,8.7c-2.5,0.5-4.7,0.5-7.2,0
		c1.7-4.2,4-9,8-11.7C-69.5-13.5-65.5-13.7-62.3-15.5z"/>
	<path class="st1" d="M157-20c2.5,1.7,5,4,8,5.2c3,1.2,6.5,1.5,9.2,3.5c3.7,2.7,6,7.2,7.7,11.5c-5.2,1-11,0-14.9-3.7
		c-3.2-2.7-5.2-6.7-7.2-10.5C158.8-16,157.8-18,157-20z"/>
	<path class="st1" d="M-96.4-7.5c0.2,0,0.7,0,1,0c1,4.7,2.5,9.2,4.7,13.4c1.7,4.2,4.5,8.2,5.5,12.7c0.2,2,0,4,0,5.7
		c-0.2,4-1.7,7.5-3,11.2c-6.7-2.5-11.5-9.2-12.4-16.2C-102.1,10.4-99.1,1.2-96.4-7.5z"/>
	<path class="st1" d="M196.6-7.5c0.2,0,0.7-0.2,1-0.2c2,6,4,12.2,4.5,18.7c0.2,4.5,0.2,9.5-1.7,13.7c-2,5-6,9.2-11,11
		c-1.7-5-3.7-10.2-3.2-15.7c0.5-4.7,3.2-9,5.2-13.2C193.9,2.2,195.6-2.5,196.6-7.5z"/>
	<path class="st1" d="M163,2.5c2.5,2.2,4.2,5,7,7c3.2,2.2,7.2,3.5,10,6.2c3.5,3.7,4.7,9,6,13.9c-5.2,0-10.7-1.7-14.2-5.5
		c-3-3-4.7-7.2-6-11.2C164.8,9.7,163.8,6.2,163,2.5z"/>
	<path class="st1" d="M-66.8,7.7c1.7-1.5,3-3.5,4.5-5c0,1.2-0.2,2.2-0.5,3.2c-1.2,5.5-3,11.2-6.2,15.9c-1.7,2-3.7,4.2-6.2,5.5
		c-3,1.5-6.5,2-9.7,2.2c1-4.7,2.2-9.7,5.5-13.4C-75.7,12.4-70.3,11.2-66.8,7.7z"/>
	<path class="st1" d="M-103.4,23.4c1,1.2,1.7,3,2.5,4.5c1.2,3,3.2,5.5,5,8c3,4.2,6.7,8,9.2,12.4c1.7,3.2,2.5,7,2.2,10.5
		c0,3.5,0,7-0.7,10.5c-4.5-1.2-8.7-3.2-12-6.5c-4.5-4.7-6.7-11.5-7.2-17.7c0-1.2,0.2-2.7,0.2-4c-0.2,0.5-0.2,1-0.5,1.7
		c-0.5-3.5-0.5-7,0-10.2c0,0.2,0.2,1,0.5,1.2c0-1.2-0.2-2.7-0.2-4C-104.1,27.6-103.9,25.4-103.4,23.4z"/>
	<path class="st1" d="M200.9,30.3c1.5-2.2,2.2-5,4-7c0.2,2,0.7,3.7,0.7,5.7c0,5.7,0,11.5,0,17.2c-1,6.2-3,12.7-7.7,17.2
		c-3,3.2-7.2,5-11.2,6.2c-0.7-5.5-1.2-11-0.2-16.2c1-4.2,3.5-8,6.2-11.5C195.4,38.3,198.4,34.3,200.9,30.3z"/>
	<path class="st1" d="M-68.3,34.3c1.7-2.2,2.7-5,4.2-7.2c0.5,2,0,4,0,6c0,6.2-0.7,12.4-3.5,17.9c-3,5.7-8.7,9.2-14.7,11
		c0.2-2.2,0.2-4.5,0-7c0.2-4.5,1.5-9,4.7-12.2C-74.5,39.8-70.8,37.8-68.3,34.3z"/>
	<path class="st1" d="M165.3,35.1c-0.2-2.7-0.5-5.5,0-8c1.5,2.2,2.2,4.7,4,6.7c2.5,3.5,6.2,5.7,9.5,8.7c4.5,5.2,5.2,12.4,5,19.2
		c-6.7-1.2-13.2-6-15.7-12.4c-1.2-3.2-2-6.7-2.2-10.2C165.8,37.8,165.5,36.6,165.3,35.1z"/>
	<path class="st1" d="M165.3,35.1c0.2,1.2,0.2,2.7,0.2,4C165.5,37.8,165.5,36.6,165.3,35.1z"/>
	<path class="st1" d="M-82,55c0.2,2.2,0.5,4.5,0,7C-82.7,59.7-82.2,57.2-82,55z"/>
	<path class="st1" d="M-63,63.9c1.2-2.7,1.5-6,2.5-9c2.2,6.7,3.2,13.4,3.7,20.4c-0.2,3.2-0.5,6.5-1.7,9.5c-2.2,5.5-7,10-12.2,12.4
		c-0.7-2.7-1.5-5.5-1.7-8.2c0.2-2.7,0.2-5.5,0-8.2C-71.5,74.4-65.3,70.2-63,63.9z"/>
	<path class="st1" d="M160.3,61.2c0.5-2,0.7-4.2,2-6c0.5,3,1,6.2,2.5,9.2c2.2,5.2,7,9,8.7,14.4c2,6.2,0.5,12.7-1,18.9
		c-6.2-3-11.5-8.7-13.2-15.4C157.3,75.4,158.8,68.2,160.3,61.2z"/>
	<path class="st1" d="M-103.9,61.7c2,1.5,3.2,3.7,5,5.5c2,2,4,4,6,5.7c5.5,5,12.2,8.2,16.2,14.7c3.5,5.7,4,12.4,5,18.9
		c-5,0-10.2-1-14.4-3.7c-4.5-2.7-7.7-7-10.2-11.5c-3.2-6.5-5.2-13.2-6.5-20.4C-103.4,67.9-103.9,64.7-103.9,61.7z"/>
	<path class="st1" d="M201.1,65.9c1.2-1.5,2.5-3.2,4.2-4.2c-1.2,9.7-2.7,19.4-7,28.1c-2.7,6-7.2,11.2-13.2,13.9
		c-3.7,2-8,2.5-12.2,2.7c0.7-7.2,1.7-14.9,6.5-21.2c3.5-4.5,8.5-7.5,12.9-11C195.6,71.9,198.6,69.2,201.1,65.9z"/>
	<path class="st1" d="M-72.5,81.4c0.2,2.7,0.2,5.5,0,8.2C-72.8,86.9-73,84.1-72.5,81.4z"/>
	<path class="st1" d="M-49.9,82.6c0.5,0.5,1,0.7,1.2,1.5c2.2,3.7,3.7,8,5.7,11.7c2,4.7,3.7,10,3.5,15.2c0.5,7.7-3.7,14.7-9.2,19.9
		c-2.2-3.5-4-7.2-5.2-11.2c-0.5-1.7-1-3.5-1.2-5.2c0.2-1.7,0.2-3.2,0-5c0.5-4.7,3.2-9.2,4.5-13.7c0.2-1,0.5-2.2,1-3
		c0.7-0.7,0.7-1.5,0.2-2.2c-0.5-1.2-0.5-3,0-4.2c0.5-0.7,0.5-1.5,0-2.2C-49.4,83.6-49.6,82.9-49.9,82.6z"/>
	<path class="st1" d="M144.8,93.8c1.7-4,3.5-8,6-11.5c0.5,2.5-0.5,4.7-0.2,7.2c0.2,2.2,0.5,4.5,1.2,6.5c1.5,5.5,4.7,10.7,4.5,16.7
		c-0.7,6.5-3.5,12.7-6.7,18.2c-5-4.7-9-11-9.5-18.2C139.9,106.3,142.1,99.8,144.8,93.8z"/>
	<path class="st1" d="M-49.4,83.9c0.5,0.7,0.5,1.5,0,2.2C-49.9,85.4-49.9,84.4-49.4,83.9z"/>
	<path class="st1" d="M-49.4,90.3c0.5,0.7,0.5,1.7-0.2,2.2C-49.9,91.8-49.9,90.8-49.4,90.3z"/>
	<path class="st1" d="M-94.4,101.5c4.2,2.7,8.2,5.7,12.7,8c4.2,2,8.5,4,12.9,5.7c4,1.5,8,3.5,11,6.7c5.2,5,8.2,12,10.7,18.7
		c-2.5,0.5-5,1-7.5,1c-7.5,0.2-14.7-2.5-20.2-7.5c-7.5-6.5-12.4-15.4-16.4-24.2C-92.2,107.3-93.7,104.5-94.4,101.5z"/>
	<path class="st1" d="M189.9,105.5c2-1.2,3.7-2.7,5.7-3.7c-1.2,3.7-3,7.2-4.5,10.7c-2.7,5.5-5.7,11.2-10,15.9
		c-4.7,5.7-10.7,10.7-17.9,12.4c-5,1.2-10.2,1-14.9-0.2c2.5-6.2,5-12.4,9.5-17.4c3-3.5,7.2-6,11.5-7.7
		C176.5,112.7,183.7,109.8,189.9,105.5z"/>
	<path class="st1" d="M-31.4,107c3.7,3,7,7,10.2,10.5c4.2,5,8.2,10.5,10,16.7c2.5,8.2,0.2,16.9-3.7,24.2c-3.5-2.7-6.2-6.2-9-9.7
		c-2.2-3.5-4.2-7.2-4.7-11.2c0.2-2.2,0.2-4.5,0-6.7c0-2.2,0.2-4.2,0.7-6.5c0.5-1.5,0.5-3.2,0-4.7C-28.4,115.2-29.9,111-31.4,107z"/>
	<path class="st1" d="M127.7,111.8c1.5-1.5,3-3.5,4.7-4.7c-1,3.2-2.2,6.2-2.7,9.5c-1,5-0.2,10,0.2,14.7c0.5,3.7,0,7.5-1.2,11
		c-2.7,6.5-7.2,11.7-12.2,16.4c-2.2-3-3.5-6.7-4.2-10.2c-0.2-1-0.5-2-0.2-2.7c0.2-0.7,0.2-1.5-0.2-2c-0.5-1-0.5-2.5,0-3.5
		c0.5-0.5,0.5-1.5,0.2-2c-0.2-2.5,1-5,1.7-7.2C117,123.5,122.4,117.5,127.7,111.8z"/>
	<path class="st1" d="M-54.8,109.3c0,1.7,0,3.2,0,5C-55.1,112.7-55.1,111-54.8,109.3z"/>
	<path class="st1" d="M-27.9,119.5c0.5,1.5,0.5,3.2,0,4.7C-27.9,122.7-27.9,121-27.9,119.5z"/>
	<path class="st1" d="M-6,126.7c0.7,0.2,1.7,0.7,2.5,1c4.5,2.7,9.2,5.2,13.4,8.2c6,3.7,11.5,8.7,15.2,14.7c2.7,4.7,3.7,10.5,4,15.9
		c-0.2,3-0.5,6.2-1.2,9.2c-4.7-2.2-9-5-12.9-8c-3.2-2.7-6.5-6-8.2-10c-2.5-5.5-2.7-11.7-4.7-17.4C0.4,135.2-2.8,130.9-6,126.7z"/>
	<path class="st1" d="M97,132.2c3.5-1.7,6.5-4,10.2-5.5c-1.7,2.5-3.7,4.7-5,7.5c-3.2,4.7-4.2,10.5-5.2,16.2
		c-0.7,4.7-2.7,9.2-5.5,12.9c-5,5.7-11.5,9.5-17.9,12.9c-0.5-2.2-1-4.5-1-6.7c0.2-2.2,0.2-4.2,0-6.5c0.5-6.2,3-12.2,7-16.7
		C84.1,140.1,90.6,136.2,97,132.2z"/>
	<path class="st1" d="M-28.7,130.7c0.2,2.2,0.2,4.5,0,6.7C-28.9,135.2-28.9,132.9-28.7,130.7z"/>
	<path class="st1" d="M112,137.9c0.2,0.7,0.2,1.5-0.2,2C111.2,139.4,111.2,138.1,112,137.9z"/>
	<path class="st1" d="M-73,141.6c1.2,0.2,2.5,0.5,3.7,1c5.7,2,11.5,3.5,17.4,4.2c7.5,1.2,15.4,0.7,22.4,4c3,1.5,6,3.2,8.2,5.7
		c2.2,1.5,3.7,4,5.7,6c1.7,2,3.2,4,4.7,6c-6.7,4-14.7,5.7-22.4,4.2c-6.5-1-12.4-4.2-17.7-8.2C-59.3,158.3-66.8,150.1-73,141.6z"/>
	<path class="st1" d="M168.3,143.4c2-0.7,4-1.5,6.2-1.7c-4.2,5.7-8.7,11-13.9,15.9c-5,5.2-11,9.7-17.7,12.7
		c-5.7,2.5-12.2,4-18.4,2.7c-4.5-0.5-8.5-2.2-12.4-4.5c4.7-6.5,10-12.7,16.9-16.7c3-1.7,6.5-2.7,10-3.2c5.5-0.7,11-1,16.4-2
		C159.8,145.9,164,144.6,168.3,143.4z"/>
	<path class="st1" d="M111.7,143.4c0.5,0.5,0.5,1.2,0.2,2C111.2,144.9,111.2,143.6,111.7,143.4z"/>
	<path class="st1" d="M72.4,162.8c0.2,2.2,0.2,4.2,0,6.5C72.1,167,72.1,165,72.4,162.8z"/>
	<path class="st1" d="M-5.5,174c5.2-1.2,10.5-2,15.7-1.2c6,1,11.5,3.2,16.7,6.5c3.2,2,6.2,4,9.2,6.2c-3.5,3.5-7.2,6.7-12,8.7
		c-6.5,3-14.2,4-21.2,2.7c-11.2-1.7-21.7-7-31.4-12.9c-3.5-2.2-7.2-4.5-10.5-7.2c2.2-0.2,4.2,0.2,6.5,0.2
		C-23.7,177-14.5,176-5.5,174z"/>
	<path class="st1" d="M75.1,179c5.2-3,10.7-5.5,16.7-6.2c3.5-0.2,7.2-0.2,10.7,0.5c7.7,1.5,15.7,3.2,23.7,3.5
		c4.7,0.5,9.7,0.2,14.4,0c-4,3.5-8.7,6.2-13.4,9.2c-9,5.2-18.7,9.7-29.1,11.2c-8.2,1.2-16.7-0.2-23.9-4.5c-3.2-2-6.2-4.2-8.7-7.2
		C68.7,183,71.9,181,75.1,179z"/>
	<path class="st1" d="M40,187.2c3.7,1.2,7.2,3.7,11,5c3.7-1.2,7-3.7,10.7-5c-2,2.5-4.7,4.5-7,6.5c5.5,3,11.2,5.5,16.7,8.2
		c9,4.2,18.2,8.5,27.4,12c4.5,1.5,9,3.5,13.9,3.5c-1.5,5.7-3,11.7-4.2,17.4c-0.5,2-0.7,4-1.7,5.7c-0.5-2-1-4-2-5.7
		c-1.7-3-4.5-5.5-7.2-7.7c-7.2-5.5-15.2-9.7-22.7-14.4c-8.2-5-16.2-10.2-23.7-15.9c-7.5,5.5-14.9,11-22.9,15.7
		c-6,3.7-12.2,7.2-18.2,11.2c-4.2,2.7-8.5,5.7-11.5,10c-1.7,2.2-2.2,5-2.7,7.5c-1-2-1.2-4-1.7-6c-1.5-5.7-2.7-11.5-4-17.2
		c5-0.2,9.7-2.2,14.4-3.7c14.7-6,29.1-12.7,43.3-19.7C45,191.7,42.3,189.7,40,187.2z"/>
</g>
</svg>
