<?xml version="1.0" encoding="utf-8"?>
<!-- Generator: Adobe Illustrator 19.1.0, SVG Export Plug-In . SVG Version: 6.00 Build 0)  -->
<svg version="1.1" id="Layer_1" xmlns="http://www.w3.org/2000/svg" xmlns:xlink="http://www.w3.org/1999/xlink" x="0px" y="0px"
	 width="685px" height="734px" viewBox="0 0 685 734" style="enable-background:new 0 0 685 734;" xml:space="preserve">
<style type="text/css">
	.st0{fill:#FFFFFF;}
</style>
<path class="st0" d="M686,343c-1,5.5-2,11.1-3,16.6c-3.5,19.7-8.7,38.7-20.8,55.1c-11.3,15.2-28.4,23.9-47.3,22.8
	c0.6-4.6,1.2-9.1,1.7-13.6c2.5-19.9,11.6-35.8,28.3-47.3c14.1-9.6,26.7-20.9,37.4-34.3c0.9-1.1,2.4-1.6,3.6-2.4
	C686,341,686,342,686,343z"/>
<path class="st0" d="M1,276c0.7-4.9,1.3-9.8,2-14.7c0.2-1.8,0.6-3.5,1-5.9c1,0.8,1.7,1,1.9,1.4c7.2,16.4,18.4,30.1,29.5,44
	c7,8.7,11,18.6,10.6,30c-0.3,8.2-0.5,16.4-0.8,25.2c-17.1-4.2-29.4-13-35.8-28.1c-3.7-8.8-5-18.5-7.4-27.8c-0.4-1.4-0.7-2.8-1-4.2
	C1,289.3,1,282.7,1,276z"/>
<path class="st0" d="M686,308c-1.9,6.1-3.4,12.5-5.9,18.4c-6.6,15.6-18.6,25.2-35.2,29.6c-0.2-0.3-0.7-0.7-0.8-1.1
	c-3-18.6-4.1-37,8.5-53c11.4-14.4,22.9-28.6,30.4-45.5c0.2-0.4,0.7-0.7,1.3-1.2c0.6,2.1,1.1,4,1.7,5.9C686,276.7,686,292.3,686,308z
	"/>
<path class="st0" d="M310.6,82.5c0,11.9,0,23.6,0,35.2c-4.3,1-8.7,1.6-12.8,3.2c-14.2,5.4-22,17.2-22,32.3c0,22.7,0,45.3,0,68
	c0,20.9-6.4,39.3-21.5,54.2c-0.6,0.6-1.2,1.2-1.7,1.8c-0.2,0.2-0.3,0.6-0.4,0.7c4.6,6.1,9.7,11.8,13.7,18.2
	c6.4,10.3,9.6,21.8,9.8,33.9c0.3,24.2,0.5,48.3,0,72.5c-0.4,19.2,14.2,35.1,33,34.8c0.5,0,0.9,0.2,1.8,0.4c0,11.9,0,23.7,0,36.1
	c-13.4,0.1-25.9-2.7-37.3-9.8c-17-10.6-28-25.6-32.5-45.1c-1.3-5.8-1.9-11.8-2-17.7c-0.2-21.8-0.9-43.7,0.1-65.5
	c1-23.2-14.3-37.6-33.8-40c-0.5-0.1-0.9-0.2-1.6-0.4c0-11.6,0-23.2,0-35.5c8.3,0,15.8-2.5,22.4-7.7c6.9-5.5,12-12.5,12.2-21.3
	c0.6-25.5,0.1-51,0.6-76.5c0.5-26.8,11.9-47.9,34.8-62.1C285.9,84.6,298,81.1,310.6,82.5z"/>
<path class="st0" d="M487.6,260.4c0,11.7,0,23.2,0,35.1c-2.3,0.4-4.6,0.8-7,1.3c-13.6,3.3-26.3,14.7-26.7,29.3
	c-0.7,24.8-0.4,49.6-0.6,74.5c-0.1,17.5-4.8,33.4-16.2,47c-14.3,17.1-32.5,26.2-55.5,26.2c0-12,0-23.7,0-35.4
	c4.5-1.1,9.2-1.7,13.4-3.5c14.4-6.2,21.7-17.5,21.9-33c0.3-24.3,0-48.7,0.1-73c0.1-18.3,7.3-33.8,19.7-47c0.9-1,1.9-1.9,2.8-2.9
	c0.2-0.2,0.3-0.6,0.7-1.2c-12-11-19.6-24.7-22.4-40.9c-0.7-3.9-0.7-7.9-0.7-11.9c-0.1-24.2,0.1-48.3-0.1-72.5
	c-0.1-16-13.9-32.6-31.6-34.1c-1.5-0.1-4-1.8-4-2.8c-0.3-11-0.2-21.9-0.2-33.1c8.5-1.6,16.3,0.4,23.6,3.2
	c26.3,10.5,42.6,29.6,47.8,57.6c0.8,4.5,0.7,9.3,0.7,14c0.2,23.8,0.1,47.7,0.4,71.5c0.2,16.7,14.6,29.2,30.7,31.1
	C485.5,260.1,486.4,260.3,487.6,260.4z"/>
<path class="st0" d="M222.1,734c-4.2-17.3-8.1-33.6-12-49.7c43.6-10.1,82.1-31.8,121.9-50.2c1.7-0.8,3.3-1.6,5.7-2.9
	c-5.2-4.6-10.1-8.9-15-13.2c0.2-0.4,0.5-0.7,0.7-1.1c3.8,1.9,8,3.3,11.5,5.7c7.3,5,14,4.9,21.2-0.2c3.4-2.4,7.6-3.8,12-4.6
	c-4.8,4.3-9.5,8.6-14.8,13.4c6.4,3.2,12.3,6.4,18.5,9.2c27,12.1,53.9,24.3,81.2,35.9c8.7,3.7,18.2,5.5,27.6,8.3
	c-3.7,15.4-7.7,31.9-11.7,48.4c-5.7-21.2-23.3-30.3-39.4-40.8c-24.7-16.1-49.6-31.8-74.4-47.8c-3.3-2.1-6.4-6.2-9.8-6.3
	c-3-0.1-6.1,4.1-9.2,6.1c-26.1,16.7-52.4,33.3-78.5,50.1c-10.7,6.9-21.7,13.8-28.9,24.7C226.1,722.9,224.8,727.7,222.1,734z"/>
<path class="st0" d="M542,594.2c-6.8,4.5-13.5,9.2-20.3,13.6c-18.6,11.9-38,22-59.5,27.6c-31.3,8.2-59.1,2.7-82.4-20.6
	c-0.5-0.5-1-0.9-1.4-1.4c-0.2-0.2-0.3-0.6-0.8-1.3c21.8-15.8,44.1-30.7,72.9-28c11.2,1,22.3,3.9,33.4,5.8c18.5,3.2,37.2,5.1,56,3
	c0.5-0.1,1,0.1,1.5,0.1C541.6,593.5,541.8,593.9,542,594.2z"/>
<path class="st0" d="M311.6,612.1c-13.2,14.1-28,23-46.2,25.9c-24.4,3.8-47-2.9-68.2-13.6c-16.4-8.3-31.8-18.7-47.6-28.3
	c-0.8-0.5-1.4-1.3-2.6-2.4c1.5-0.3,2.4-0.7,3.2-0.6c23.3,2.4,46-1.3,68.8-5.5c9.4-1.8,19-3.2,28.6-3.3c16.1-0.2,30.4,6.3,43.8,14.7
	C298,603,304.5,607.5,311.6,612.1z"/>
<path class="st0" d="M72.7,516c8.5,2.5,16.8,5.5,25.4,7.3c11.6,2.4,23.3,4.2,35,5.6c16.7,1.9,33.1,4.1,46.9,15.1
	c11.1,8.9,20.2,19.4,28.5,31.3c-24.1,13.7-47.9,14-71.9,1.6c-23-11.9-40.4-30.3-56.6-49.9c-2.7-3.3-5.3-6.8-8-10.1
	C72.2,516.5,72.5,516.3,72.7,516z"/>
<path class="st0" d="M617.4,517.3c-10.9,11.8-21.6,23.7-32.7,35.3c-10.4,10.8-22.4,19.6-36,25.9c-23.1,10.7-45.8,9.7-68-2.9
	c0.1-0.7-0.1-1.3,0.2-1.6c8.5-11.8,17.9-22.8,29.7-31.5c10.6-7.8,22.8-11.6,35.7-12.5c23.1-1.7,45.7-5.6,67.5-13.7
	c0.7-0.3,1.6-0.3,2.4-0.4C616.7,516.4,617.1,516.9,617.4,517.3z"/>
<path class="st0" d="M24.7,427.4C43.3,442.2,64,451,85,459.3c14.4,5.7,24.9,15.9,32.1,29.4c4.2,7.9,7.7,16.2,11.7,24.7
	c-28.5,7.3-50.9-1.6-69.3-22c-16.1-17.9-26.2-39.3-34.8-61.4C24.5,429.5,24.7,429,24.7,427.4z"/>
<path class="st0" d="M560.5,513.5c8.7-24.5,20.1-46,46-55.5c19.4-7.1,38-15.9,54.8-28.3c0.6-0.5,1.4-0.6,3.5-1.5
	c-3.2,7.5-5.8,13.9-8.7,20.2c-8.3,17.8-18,34.7-32.5,48.5C605.8,513.8,585.2,519.7,560.5,513.5z"/>
<path class="st0" d="M468.3,483.4c-3.7,5.5-7,10.5-10.3,15.5c-6.4,9.7-9.4,20.7-10.8,31.9c-3.1,24.5-17.2,40.5-37.5,52.3
	c-4.7,2.7-9.4,5.4-14.8,8.5c-0.7-3-1.4-5.5-1.8-8c-4.9-30.2,5.3-54.6,29.9-72.4c13.7-9.9,28.6-18.2,43-27.1
	C466.4,483.8,467.1,483.8,468.3,483.4z"/>
<path class="st0" d="M293.4,591.2c-15.4-8.3-30.5-16.8-41.1-31.1c-6.2-8.4-9.1-18.1-10.7-28.2c-2.6-17.4-8.8-33.1-20.4-46.5
	c-0.4-0.4-0.4-1.1-1.1-2.9c7.8,4.5,14.5,8.3,21.2,12.3c13.8,8.2,27.2,16.9,38,29c9.6,10.8,15.9,23.1,16.5,37.6
	c0.4,9.1-0.5,18.3-1,27.5C294.9,589.5,294.1,590.2,293.4,591.2z"/>
<path class="st0" d="M73.9,438c-18.4-0.1-33.4-6.4-45.1-20.2c-9.4-11.2-15.1-24.3-18.6-38.2c-3-11.7-4.7-23.8-6.9-35.7
	c-0.2-1.1,0-2.2,0-4.8c2.5,2.8,4.3,4.6,5.8,6.5c10,12.8,22.6,22.7,35.7,32c16.5,11.7,25.2,27.8,27.3,47.7
	C72.5,429.3,73.2,433.3,73.9,438z"/>
<path class="st0" d="M489.3,553c-0.6-1.1-0.9-1.9-1.3-2.6c-9.4-18-13.2-36.6-5.4-56.2c8.7-22,25.8-37.5,42.2-53.8
	c-1.6,4.8-3.3,9.6-4.8,14.5c-3.4,11.7-2.7,23.7-0.8,35.4c1.9,12.4-0.5,23.5-6.4,34.1C506.9,534.9,499,543.9,489.3,553z"/>
<path class="st0" d="M164.4,440c15,14.7,28.5,28.8,38,46.1c9.9,18.2,10.1,37.1,2,56c-1.4,3.3-3,6.6-4.5,10c-1-0.4-1.7-0.4-2.1-0.8
	c-10.3-9.9-19.5-20.5-25.3-33.7c-3.9-8.9-4.3-18.2-3-27.5c2.2-16.1,1.8-31.9-4.8-47.1C164.4,442.5,164.5,441.9,164.4,440z"/>
<path class="st0" d="M566,386.5c0,1.1,0.2,2.2,0,3.3c-2.9,14.5,2.4,27.5,7.1,40.7c2,5.7,4.4,11.5,4.7,17.4
	c0.3,6.2-0.9,12.8-2.9,18.8c-2.8,8.5-6.9,16.5-10.7,25.1c-1.6-0.9-2.5-1.1-3-1.7c-15.3-15.7-22.4-34-17.2-56
	c4-17.2,12.7-32.4,20.6-47.9C565,386.2,565.5,386.4,566,386.5z"/>
<path class="st0" d="M125.5,492.3c-9.4-17.9-19.1-34.5-12.6-54.3c5.4-16.8,13.3-33,9.5-51.7c0.5-0.1,1-0.1,1.5-0.2
	c1.7,3.1,3.6,6.1,5.1,9.2c6.4,13.4,13.6,26.5,16.2,41.5c2.9,16.9-0.6,32-11.1,45.5C131.7,485.4,129,488.3,125.5,492.3z"/>
<path class="st0" d="M37,282.3c-4.5-3.1-8.7-5.4-12.2-8.5C13.8,263.9,9.7,251,9.5,236.7c-0.2-16.9,4.4-32.9,9.7-48.6
	c0.2-0.5,0.4-0.9,0.8-1.3c0.2-0.2,0.6-0.2,1.3-0.3c1.7,5.5,3,11.2,5.2,16.6c3,7.6,6,15.4,10.2,22.4c9.3,15.7,9.4,31.8,3.4,48.4
	C39.2,276.2,38.3,278.5,37,282.3z"/>
<path class="st0" d="M669.2,184.8c3.1,12.7,6.4,24.1,8.6,35.7c2.1,10.6,2.2,21.4-0.9,31.9c-3.9,13.2-12,23.1-25.4,29.2
	c-6-15.8-11-31-3.7-47.1c7-15.4,15.4-30.3,19-47.1C667,187.1,667.5,186.8,669.2,184.8z"/>
<path class="st0" d="M612.5,418.7c-16.8-9.6-28.1-22.2-30.1-41.3c-1.7-16.7,2.2-32.7,6-48.8c0.2-0.9,1-1.6,2.3-3.4
	c0.8,16.1,8.4,28,17.3,39.3c9.8,12.4,10.4,26.5,7.7,41.3C614.9,409.8,613.7,413.9,612.5,418.7z"/>
<path class="st0" d="M76.1,418.6c-4.1-16.9-8-33,1.1-48.9c1.6-2.7,3.3-5.4,5.3-7.9c8-9.7,13.5-20.6,15.3-33.1
	c0.1-0.9,0.6-1.7,0.9-2.6c0.5,0,1,0,1.5-0.1c1.9,11.5,4.4,22.9,5.5,34.5c0.8,7.9,0.7,16.3-1.1,24.1
	C101.2,400.3,90.6,410.6,76.1,418.6z"/>
<path class="st0" d="M489.9,5.4c5.9,3.2,11.7,6.4,17.6,9.5c14.8,7.8,29.8,15.1,44.2,23.5c5.7,3.3,10.2,8.8,14.8,13.6
	c1.6,1.7,2.5,4.3,3.1,6.7c2.5,9-1.3,13.7-10.3,13.4c-13.4-0.5-22.3-8.6-30.2-18.1c-9.8-11.8-18.9-24.1-28.6-35.9
	c-3.4-4.2-8-7.4-12-11.1C489,6.5,489.5,6,489.9,5.4z"/>
<path class="st0" d="M47,126.1c0.6,5.2,0.8,10.2,1.8,15.1c1.8,8.6,3.8,17.2,6.2,25.7c3.5,12,2.3,23.4-3.6,34.3
	c-2.2,4-4.3,8-6.6,12.5c-13.7-10.3-19.1-23.4-17.4-39.3c1.8-17.5,9.3-32.9,18.2-47.7C45.6,126.5,46,126.4,47,126.1z"/>
<path class="st0" d="M642.9,124.5c4.9,10.6,10,19.8,13.4,29.5c2.9,8.1,5.3,16.9,5.4,25.3c0.1,13.5-5.3,25.3-16.6,33.6
	c-0.4-0.1-0.9,0-1-0.2c-8.6-12.6-15.2-26-11.2-41.9c3.6-14.2,8.2-28.1,8.4-42.9C641.2,127.4,641.8,126.8,642.9,124.5z"/>
<path class="st0" d="M196.4,8.1C181.6,25.9,167,43.8,152,61.4c-6.4,7.5-15.4,9.9-24.9,10.5c-4.8,0.3-8.1-1.8-7.6-6.7
	c0.4-4.5,1.2-9.5,3.6-13.1c3-4.6,7.3-9,12.1-11.7C155.2,29,175.7,18.4,196,7.5C196.1,7.7,196.3,7.9,196.4,8.1z"/>
<path class="st0" d="M597.6,262.8c1.3,2.5,2,3.5,2.5,4.6c4.8,11.4,13.6,19.2,23.1,26.6c8.6,6.6,12.1,16.2,13.7,26.5
	c0.9,6,1,12.1,1.5,19c-14.4-3.6-25.8-10.1-32.3-22.6c-3.4-6.5-5.6-13.9-6.8-21.2c-1.5-9-1.5-18.2-2.1-27.3
	C597.1,267.1,597.4,265.7,597.6,262.8z"/>
<path class="st0" d="M50.8,338.8c0.1-15.8,0.1-31.6,13.3-43.2c10.1-8.8,20.4-17.1,25.6-30c0.2-0.5,1-0.7,1.4-0.9
	c0,7.2,0.9,14.3-0.2,21.1c-1.5,9.7-3.6,19.4-6.9,28.6C79.6,326.4,62.9,338.2,50.8,338.8z"/>
<path class="st0" d="M609.9,75.9c3.6,4.5,6.6,8.1,9.3,11.8c7.5,10.2,13.8,21,16.1,33.8c2.2,12.5-1.6,22.9-9.9,32.9
	c-9.6-10.9-17.9-21.7-17.1-37.1c0.6-12.7,0.6-25.5,0.9-38.3C609.1,78.5,609.4,77.9,609.9,75.9z"/>
<path class="st0" d="M78.6,77c0.4,11.4,0.2,22.5,1.4,33.4c1.9,17.3-4.1,31.3-16.8,43.6c-6-6.3-9.5-13.3-10.3-21.7
	c-1-9.4,1-18.5,5.6-26.5c5.2-9.1,11.5-17.5,17.3-26.2C76.6,78.5,77.8,77.7,78.6,77z"/>
<path class="st0" d="M593.9,210.3c7.5,9.8,17.3,15.9,27.9,21.1c9.8,4.8,14.8,13.8,18,23.7c1.3,4,2.2,8.2,3.4,12.8
	c-11.1,0.1-20.9-2.6-28.9-9.8C600.1,245.6,597.4,227.8,593.9,210.3z"/>
<path class="st0" d="M95.5,210.6c-1.5,6.1-2.8,12.2-4.6,18.2c-3.4,11.1-7.6,21.7-16.8,29.6c-8,7-17.5,9.4-28.6,9.9
	c3.3-14.3,6.4-27.8,19.6-35.6c10.7-6.3,22.3-11.3,28.9-22.9C94.5,210,95,210.3,95.5,210.6z"/>
<path class="st0" d="M574.9,37.7c14.1,11.8,26.5,24.2,30.8,42.5c1.8,7.8-0.2,15.4-4.6,22.1c-0.5,0.8-3.1,1.2-3.8,0.6
	c-9.7-8.1-17.3-17.1-18.3-30.8c-0.8-10.9-3-21.7-4.6-32.5C574.3,39.3,574.6,38.8,574.9,37.7z"/>
<path class="st0" d="M113.9,38.9c-1,5.4-2.2,10.6-2.9,15.9c-0.9,6.2-1.7,12.4-1.9,18.7c-0.3,8.8-3.7,15.9-9.9,21.9
	c-2.4,2.3-4.8,4.6-7,7c-2.3,2.5-3.7,1.9-5.2-0.9c-4.9-9-5.7-18.3-2-27.9c5.4-14.3,15.8-24.8,27.2-34.4C112.4,39,113,39.1,113.9,38.9
	z"/>
<path class="st0" d="M108.3,160.5c-1.1,2.6-2,5.4-3.4,7.8c-5.3,8.5-9.8,17.7-16.4,25.2c-8.6,9.7-20.5,11.7-34,9.6
	c4.8-11.6,9.5-22.5,21.4-27.4c10.9-4.5,23-6.5,31.4-16.3C107.6,159.8,108,160.2,108.3,160.5z"/>
<path class="st0" d="M634.3,202.9c-9,2.1-16.8,0.8-24.2-2.3c-11.7-4.9-27.8-27.6-29.1-41c8.3,8.3,18.4,12,29,14.9
	c8.4,2.3,13.5,8.7,17.9,15.5C630.4,193.8,632,198.2,634.3,202.9z"/>
<path class="st0" d="M614.6,146.1c-23.4,8.8-40.3-4.9-53.6-28.9c5.7,2.1,11.3,4.5,17.2,6.1c4.5,1.3,9.5,1.2,14,2.4
	C603.1,128.4,608.5,137.2,614.6,146.1z"/>
<path class="st0" d="M73.9,146.9c7.7-13.8,17.5-22.5,33.4-23.1c5.4-0.2,10.7-3.1,16-4.9c1.4-0.5,2.7-1.5,5.1-2.8
	c-11.1,19.3-22.4,32.7-41,32.8C83.1,148.9,78.8,147.7,73.9,146.9z"/>
<path class="st0" d="M151.6,80.7c-7.1,8.3-14,16.7-24.1,21c-9.3,4-18.4,2.7-28-2.3c6.9-7.4,13.4-14.7,24-15.4
	C132.9,83.5,142.5,85.4,151.6,80.7z"/>
<path class="st0" d="M537.6,80.8c9.3,4.4,19.2,2.3,28.8,3.3c9.7,1,16.4,7.7,22.2,15.1C570.5,110.3,553.5,101.4,537.6,80.8z"/>
</svg>
