<?xml version="1.0" encoding="utf-8"?>
<!-- Generator: Adobe Illustrator 19.1.0, SVG Export Plug-In . SVG Version: 6.00 Build 0)  -->
<svg version="1.1" id="Layer_1" xmlns="http://www.w3.org/2000/svg" xmlns:xlink="http://www.w3.org/1999/xlink" x="0px" y="0px"
	 width="318px" height="500px" viewBox="-320 31 318 500" style="enable-background:new -320 31 318 500;" xml:space="preserve">
<style type="text/css">
	.st0{fill:#F2F2F2;}
	.st1{fill:#0AAC41;}
	.st2{fill:#818185;}
	.st3{fill:#92A3B3;}
	.st4{fill:#B8B8B8;}
	.st5{fill:#9E9E9E;}
	.st6{fill:#CCCCCC;}
	.st7{fill:#D35F5F;}
	.st8{fill:#F89393;}
	.st9{fill:#FE6502;}
	.st10{fill:#FFFFFF;}
	.st11{fill:#7A7A7A;}
	.st12{fill:#C03433;}
	.st13{fill:#CCF1AF;}
	.st14{fill:#7CA75A;}
	.st15{fill:#44B449;}
	.st16{fill:#C5C5C5;}
	.st17{fill:#3A589A;}
	.st18{fill:#DD4B39;}
	.st19{fill:#28AAE1;}
	.st20{fill:#FFD83D;}
	.st21{fill:#FFCC00;stroke:#FFCC00;stroke-width:0.2;stroke-miterlimit:10;}
	.st22{fill:#FFCC00;}
	.st23{fill:#C5C5C5;stroke:#C5C5C5;stroke-width:0.2;stroke-miterlimit:10;}
	.st24{fill:#CC9966;stroke:#CC9966;stroke-width:0.2;stroke-miterlimit:10;}
	.st25{fill:#CC9966;}
	.st26{fill:#FFFFFF;stroke:#FFFFFF;stroke-width:0.2;stroke-miterlimit:10;}
	.st27{fill:#818185;stroke:#818185;stroke-width:0.2;stroke-miterlimit:10;}
	.st28{fill:#888888;}
</style>
<circle class="st0" cx="-300" cy="276.5" r="17.5"/>
<polygon class="st1" points="-313.4,353.3 -319.9,360.3 -306.9,360.3 "/>
<polygon class="st2" points="-312.8,417.5 -319.8,411 -319.8,424 "/>
<polygon class="st3" points="-316,519.5 -320,515 -320,524 "/>
<polygon class="st2" points="-265.9,504.6 -272.9,498.2 -272.9,511.2 "/>
<polygon class="st2" points="-313.4,504.7 -306.4,511.2 -306.4,498.2 "/>
<polygon class="st2" points="-293.2,421 -286.8,414 -299.8,414 "/>
<polygon class="st4" points="-313.4,372.3 -319.9,379.3 -306.9,379.3 "/>
<rect x="-272.8" y="398" class="st5" width="2" height="2"/>
<rect x="-269.8" y="401" class="st5" width="2" height="2"/>
<rect x="-263.8" y="401" class="st5" width="2" height="2"/>
<rect x="-257.8" y="401" class="st5" width="2" height="2"/>
<rect x="-251.8" y="401" class="st5" width="2" height="2"/>
<rect x="-266.7" y="398" class="st5" width="2" height="2"/>
<rect x="-260.7" y="398" class="st5" width="2" height="2"/>
<rect x="-254.7" y="398" class="st5" width="2" height="2"/>
<rect x="-248.7" y="398" class="st5" width="2" height="2"/>
<g>
	<rect x="-259.7" y="371" class="st4" width="1.9" height="14"/>
	<rect x="-256.9" y="372" class="st6" width="10.1" height="8"/>
</g>
<g>
	<rect x="-259.7" y="351.1" class="st7" width="1.9" height="14"/>
	<rect x="-256.9" y="352.1" class="st8" width="10.1" height="8"/>
</g>
<g>
	<rect x="-239.7" y="351.1" class="st9" width="14" height="14"/>
	<path class="st10" d="M-236.5,360.5c-0.8,0-1.4,0.6-1.4,1.4s0.6,1.4,1.4,1.4s1.4-0.6,1.4-1.4C-235.2,361.2-235.7,360.5-236.5,360.5
		z M-237.9,356.5v2c1.3,0,2.5,0.5,3.4,1.4s1.4,2.1,1.4,3.4h2C-231,359.5-234.2,356.5-237.9,356.5z M-237.9,352.9v2
		c4.6,0,8.4,3.8,8.4,8.4h2C-227.5,357.6-232.2,352.9-237.9,352.9z"/>
</g>
<g>
	<polygon class="st11" points="-297.3,378.1 -298.2,381.3 -294.9,380.6 	"/>
	
		<rect x="-295.4" y="374.3" transform="matrix(-0.7071 -0.7071 0.7071 -0.7071 -767.7027 435.6956)" class="st11" width="3.5" height="5.1"/>
	<path class="st11" d="M-290.9,372.3c-0.4,0-0.8,0.1-1.1,0.4l-0.7,0.7l2.5,2.5l0.7-0.7c0.2-0.3,0.4-0.7,0.4-1.1
		C-289.2,373.1-289.9,372.3-290.9,372.3z"/>
</g>
<g>
	<circle class="st12" cx="-213" cy="482.8" r="6.5"/>
	<path class="st10" d="M-209.8,484.7L-209.8,484.7l-1.9-1.9l1.9-1.9l0,0c0,0,0,0,0-0.1s0-0.2,0-0.2l-0.9-0.9c-0.1-0.1-0.1-0.1-0.2,0
		h-0.1l0,0l-1.9,1.9l-1.9-1.9l0,0c0,0,0,0-0.1,0c-0.1,0-0.2,0-0.2,0l-0.9,0.9c-0.1,0.1-0.1,0.1,0,0.2v0.1l0,0l1.9,1.9l-1.9,1.9l0,0
		c0,0,0,0,0,0.1s0,0.2,0,0.2l0.9,0.9c0.1,0.1,0.1,0.1,0.2,0h0.1l0,0l1.9-1.9l1.9,1.9l0,0c0,0,0,0,0.1,0c0.1,0,0.2,0,0.2,0l0.9-0.9
		C-209.8,485-209.8,484.9-209.8,484.7C-209.8,484.8-209.8,484.8-209.8,484.7z"/>
</g>
<g>
	<circle class="st12" cx="-272.8" cy="377.9" r="6.5"/>
	<path class="st10" d="M-269.7,379.8L-269.7,379.8l-1.9-1.9l1.9-1.9l0,0c0,0,0,0,0-0.1s0-0.2,0-0.2l-0.9-0.9c-0.1-0.1-0.1-0.1-0.2,0
		h-0.1l0,0l-1.9,1.9l-1.9-1.9l0,0c0,0,0,0-0.1,0c-0.1,0-0.2,0-0.2,0l-0.9,0.9c-0.1,0.1-0.1,0.1,0,0.2v0.1l0,0l1.9,1.9l-1.9,1.9l0,0
		c0,0,0,0,0,0.1s0,0.2,0,0.2l0.9,0.9c0.1,0.1,0.1,0.1,0.2,0h0.1l0,0l1.9-1.9l1.9,1.9l0,0c0,0,0,0,0.1,0c0.1,0,0.2,0,0.2,0l0.9-0.9
		C-269.7,380-269.7,379.9-269.7,379.8C-269.7,379.9-269.7,379.8-269.7,379.8z"/>
</g>
<g>
	<circle class="st6" cx="-272.8" cy="357.1" r="6.5"/>
	<path class="st10" d="M-269.7,359.1L-269.7,359.1l-1.9-1.9l1.9-1.9l0,0c0,0,0,0,0-0.1s0-0.2,0-0.2l-0.9-0.9c-0.1-0.1-0.1-0.1-0.2,0
		h-0.1l0,0l-2,1.8l-1.9-1.9l0,0c0,0,0,0-0.1,0s-0.2,0-0.2,0l-0.9,0.9c-0.1,0.1-0.1,0.1,0,0.2v0.1l0,0l1.9,1.9l-1.9,1.9l0,0
		c0,0,0,0,0,0.1s0,0.2,0,0.2l0.9,0.9c0.1,0.1,0.1,0.1,0.2,0h0.1l0,0l1.9-1.9l1.9,1.9l0,0c0,0,0,0,0.1,0s0.2,0,0.2,0l0.9-0.9
		C-269.7,359.3-269.7,359.2-269.7,359.1L-269.7,359.1z"/>
</g>
<circle class="st0" cx="-300" cy="224.5" r="17.5"/>
<circle class="st1" cx="-260" cy="224.5" r="17.5"/>
<circle class="st1" cx="-260" cy="276.5" r="17.5"/>
<g>
	<circle class="st13" cx="-260" cy="321.5" r="17.5"/>
</g>
<g>
	<circle class="st0" cx="-298" cy="321.5" r="17.5"/>
</g>
<circle class="st0" cx="-300" cy="276.5" r="17.5"/>
<g>
	<g>
		<path class="st14" d="M-251.7,317.9l-10,10c-0.3,0.3-0.7,0.3-0.9,0l-5.7-5.8c-0.3-0.3-0.3-0.7,0-0.9l1.4-1.4
			c0.3-0.3,0.7-0.3,0.9,0l3.9,3.9l8.2-8.2c0.3-0.3,0.7-0.3,0.9,0l1.4,1.4C-251.3,317.2-251.3,317.6-251.7,317.9z"/>
	</g>
</g>
<g>
	<path class="st2" d="M-288.7,317.9l-10,10c-0.3,0.3-0.7,0.3-0.9,0l-5.7-5.8c-0.3-0.3-0.3-0.7,0-0.9l1.4-1.4c0.3-0.3,0.7-0.3,0.9,0
		l3.9,3.9l8.2-8.2c0.3-0.3,0.7-0.3,0.9,0l1.4,1.4C-288.3,317.2-288.3,317.6-288.7,317.9z"/>
</g>
<g>
	<g>
		<path class="st15" d="M-286.9,354.6l-7.2,7.2c-0.2,0.2-0.5,0.2-0.7,0l-4.1-4.2c-0.2-0.2-0.2-0.5,0-0.7l1-1c0.2-0.2,0.5-0.2,0.7,0
			l2.8,2.8l5.9-5.9c0.2-0.2,0.5-0.2,0.7,0l1,1C-286.7,354.1-286.7,354.4-286.9,354.6z"/>
	</g>
</g>
<g>
	<path class="st16" d="M-319.8,431v31h3.4c0.3-5.5,3.7-10.1,8.3-11.8V449c-1.8-1.2-3-3.3-3-5.6c0-3.7,3-6.7,6.8-6.7
		c3.8,0,6.8,3,6.8,6.7c0,2.3-1.2,4.4-3,5.6v1.2c4.6,1.7,8,6.3,8.3,11.8h3.4v-31H-319.8z"/>
	<path class="st10" d="M-316.3,462h24.3c-0.3-5.5-3.7-10.1-8.3-11.8V449c1.8-1.2,3-3.3,3-5.6c0-3.7-3-6.7-6.8-6.7
		c-3.8,0-6.8,3-6.8,6.7c0,2.3,1.2,4.4,3,5.6v1.2C-312.4,451.9-315.9,456.5-316.3,462z"/>
</g>
<g>
	<rect x="-300" y="101" class="st17" width="16" height="16"/>
	<path class="st10" d="M-289.7,116h-2.1v-5.5h-1.4v-1.9h1.4v-1.1c0-1.6,0.4-2.5,2.3-2.5h1.5v1.9h-1c-0.7,0-0.7,0.3-0.7,0.8v1h1.7
		l-0.2,1.9h-1.5V116L-289.7,116z"/>
</g>
<g>
	<rect x="-280" y="101" class="st18" width="16" height="16"/>
	<path class="st10" d="M-271.6,104.7c0,0-2,0-2.7,0c-1.2,0-2.3,0.9-2.3,2s0.8,1.9,2,1.9c0.1,0,0.2,0,0.2,0c-0.1,0.2-0.1,0.3-0.1,0.5
		c0,0.3,0.2,0.5,0.4,0.7c-0.2,0-0.3,0-0.5,0c-1.5,0-2.6,0.9-2.6,1.9s1.3,1.6,2.7,1.6c1.7,0,2.6-1,2.6-1.9c0-0.8-0.2-1.2-0.9-1.7
		c-0.2-0.2-0.7-0.6-0.7-0.8c0-0.3,0.1-0.4,0.5-0.8c0.4-0.3,0.8-0.8,0.8-1.4c0-0.7-0.3-1.3-0.9-1.5h0.8L-271.6,104.7L-271.6,104.7z
		 M-272.5,111.2c0,0.1,0,0.2,0,0.3c0,0.8-0.5,1.4-1.9,1.4c-1,0-1.8-0.6-1.8-1.4s0.9-1.4,1.9-1.4c0.2,0,0.5,0,0.7,0.1
		C-273,110.6-272.6,110.8-272.5,111.2L-272.5,111.2z M-274.1,108.3c-0.7,0-1.3-0.8-1.5-1.7c-0.2-0.9,0.3-1.6,1-1.6
		c0.7,0,1.3,0.7,1.5,1.7C-272.9,107.7-273.4,108.3-274.1,108.3z M-268.8,106.6v-1.9h-0.6v1.9h-1.9v0.6h1.9v1.9h0.6v-1.9h1.9v-0.6
		H-268.8z"/>
</g>
<g>
	<rect x="-260" y="101" class="st19" width="16" height="16"/>
	<path class="st10" d="M-248.1,106.5c-0.3,0.1-0.6,0.2-0.9,0.3c0.3-0.2,0.6-0.5,0.7-0.9c-0.3,0.2-0.7,0.3-1,0.4
		c-0.3-0.3-0.7-0.5-1.2-0.5c-0.9,0-1.6,0.7-1.6,1.6c0,0.1,0,0.3,0,0.4c-1.3-0.1-2.5-0.7-3.3-1.7c-0.1,0.2-0.2,0.5-0.2,0.8
		c0,0.6,0.3,1.1,0.7,1.4c-0.3,0-0.5-0.1-0.7-0.2l0,0c0,0.8,0.6,1.4,1.3,1.6c-0.1,0-0.3,0.1-0.4,0.1s-0.2,0-0.3,0
		c0.2,0.6,0.8,1.1,1.5,1.1c-0.6,0.4-1.3,0.7-2,0.7c-0.1,0-0.3,0-0.4,0c0.7,0.5,1.6,0.7,2.5,0.7c3,0,4.6-2.5,4.6-4.6
		c0-0.1,0-0.1,0-0.2C-248.6,107.2-248.3,106.9-248.1,106.5L-248.1,106.5z"/>
</g>
<g>
	<rect x="-320" y="101" class="st2" width="16" height="16"/>
	<path class="st10" d="M-308.3,105.3h-7.4c-0.5,0-0.9,0.4-0.9,0.9v5.5c0,0.5,0.4,0.9,0.9,0.9h7.4c0.5,0,0.9-0.4,0.9-0.9v-5.5
		C-307.4,105.7-307.8,105.3-308.3,105.3z M-308.3,107.2l-3.7,2.3l-3.7-2.3v-0.9l3.7,2.2l3.7-2.3V107.2z"/>
</g>
<g>
	<polygon class="st2" points="-296,165.7 -290,159.8 -298.3,158.6 -302,151 -305.8,158.6 -313.9,159.8 -307.9,165.7 -309.3,174 
		-302,170.1 -294.7,174 	"/>
</g>
<g>
	<polygon class="st20" points="-262,169.5 -268.8,173.1 -267.5,165.5 -272.9,160.1 -265.3,159 -262,152.1 -258.7,159 -251.2,160.1 
		-256.5,165.5 -255.3,173.1 	"/>
	<g>
		<path class="st20" d="M-262,153.3l2.8,5.7l0.2,0.5l0.5,0.1l6.3,0.9l-4.6,4.5l-0.4,0.4l0.1,0.5l1.1,6.3l-5.6-3l-0.5-0.2l-0.5,0.2
			l-5.6,3l1.1-6.3l0.1-0.5l-0.4-0.4l-4.6-4.5l6.3-0.9l0.5-0.1l0.2-0.5L-262,153.3 M-262,151l-3.7,7.6l-8.3,1.2l6,5.9l-1.4,8.3
			l7.4-3.9l7.4,3.9l-1.4-8.3l6-5.9l-8.3-1.2L-262,151L-262,151z"/>
	</g>
</g>
<rect x="-214.9" y="431.6" class="st21" width="2.9" height="2.9"/>
<rect x="-212" y="434.5" class="st22" width="2.9" height="2.9"/>
<rect x="-217.8" y="431.6" class="st21" width="2.9" height="2.9"/>
<rect x="-214.9" y="437.5" class="st21" width="2.9" height="2.9"/>
<rect x="-220.7" y="434.5" class="st22" width="2.9" height="2.9"/>
<rect x="-217.8" y="437.5" class="st21" width="2.9" height="2.9"/>
<rect x="-235.1" y="431.6" class="st23" width="2.9" height="2.9"/>
<rect x="-232.2" y="434.5" class="st16" width="2.9" height="2.9"/>
<rect x="-238" y="431.6" class="st23" width="2.9" height="2.9"/>
<rect x="-235.1" y="437.5" class="st23" width="2.9" height="2.9"/>
<rect x="-240.7" y="434.5" class="st16" width="2.9" height="2.9"/>
<rect x="-238" y="437.5" class="st23" width="2.9" height="2.9"/>
<rect x="-254.9" y="431.6" class="st24" width="2.9" height="2.9"/>
<rect x="-252" y="434.5" class="st25" width="2.9" height="2.9"/>
<rect x="-257.8" y="431.6" class="st24" width="2.9" height="2.9"/>
<rect x="-257.8" y="437.5" class="st24" width="2.9" height="2.9"/>
<rect x="-260.7" y="434.5" class="st25" width="2.9" height="2.9"/>
<rect x="-254.9" y="437.5" class="st24" width="2.9" height="2.9"/>
<g>
	
		<rect x="-265.7" y="227.2" transform="matrix(0.7071 0.7071 -0.7071 0.7071 85.1665 253.4448)" class="st26" width="4.7" height="4.7"/>
	
		<rect x="-262.4" y="217.1" transform="matrix(0.7071 0.7071 -0.7071 0.7071 79.0382 248.1298)" class="st26" width="4.7" height="4.7"/>
	
		<rect x="-259" y="227.2" transform="matrix(0.7071 0.7071 -0.7071 0.7071 87.1299 248.7048)" class="st26" width="4.7" height="4.7"/>
	
		<rect x="-259" y="220.5" transform="matrix(0.7071 0.7071 -0.7071 0.7071 82.3899 246.7415)" class="st26" width="4.7" height="4.7"/>
	
		<rect x="-265.7" y="220.5" transform="matrix(0.7071 0.7071 -0.7071 0.7071 80.4266 251.4814)" class="st26" width="4.7" height="4.7"/>
</g>
<g>
	
		<rect x="-305.7" y="227.2" transform="matrix(0.7071 0.7071 -0.7071 0.7071 73.4655 281.6937)" class="st27" width="4.7" height="4.7"/>
	
		<rect x="-302.3" y="217.1" transform="matrix(0.7071 0.7071 -0.7071 0.7071 67.3372 276.3787)" class="st27" width="4.7" height="4.7"/>
	
		<rect x="-299" y="227.2" transform="matrix(0.7071 0.7071 -0.7071 0.7071 75.4288 276.9537)" class="st27" width="4.7" height="4.7"/>
	
		<rect x="-299" y="220.5" transform="matrix(0.7071 0.7071 -0.7071 0.7071 70.6888 274.9904)" class="st27" width="4.7" height="4.7"/>
	
		<rect x="-305.7" y="220.5" transform="matrix(0.7071 0.7071 -0.7071 0.7071 68.7255 279.7303)" class="st27" width="4.7" height="4.7"/>
</g>
<g>
	
		<rect x="-299" y="271.5" transform="matrix(-0.7071 -0.7071 0.7071 -0.7071 -699.9479 257.7204)" class="st27" width="4.7" height="4.7"/>
	
		<rect x="-302.3" y="281.5" transform="matrix(-0.7071 -0.7071 0.7071 -0.7071 -712.7796 272.5154)" class="st27" width="4.7" height="4.7"/>
	
		<rect x="-305.7" y="271.5" transform="matrix(-0.7071 -0.7071 0.7071 -0.7071 -711.3913 252.9804)" class="st27" width="4.7" height="4.7"/>
	
		<rect x="-305.7" y="278.2" transform="matrix(-0.7071 -0.7071 0.7071 -0.7071 -716.1313 264.4237)" class="st27" width="4.7" height="4.7"/>
	
		<rect x="-299" y="278.2" transform="matrix(-0.7071 -0.7071 0.7071 -0.7071 -704.6879 269.1637)" class="st27" width="4.7" height="4.7"/>
</g>
<g>
	
		<rect x="-259.1" y="269.8" transform="matrix(-0.7071 -0.7071 0.7071 -0.7071 -630.7347 283.0378)" class="st26" width="4.7" height="4.7"/>
	
		<rect x="-262.5" y="279.8" transform="matrix(-0.7071 -0.7071 0.7071 -0.7071 -643.5664 297.8328)" class="st26" width="4.7" height="4.7"/>
	
		<rect x="-265.8" y="269.8" transform="matrix(-0.7071 -0.7071 0.7071 -0.7071 -642.178 278.2978)" class="st26" width="4.7" height="4.7"/>
	
		<rect x="-265.8" y="276.5" transform="matrix(-0.7071 -0.7071 0.7071 -0.7071 -646.918 289.7411)" class="st26" width="4.7" height="4.7"/>
	
		<rect x="-259.1" y="276.5" transform="matrix(-0.7071 -0.7071 0.7071 -0.7071 -635.4747 294.4811)" class="st26" width="4.7" height="4.7"/>
</g>
<g id="Tools">
	<path class="st28" d="M-292.6,52.4L-292.6,52.4c-0.1,0-0.2,0-0.3,0l-10-10c-0.7-0.7-1.7-0.9-2.6-0.6l1.6-4.6c0.3-0.8,0-1.9-0.6-2.4
		l-3.3-3.3c-0.6-0.6-1.7-0.8-2.4-0.6l-2,0.7c-0.3,0.1-0.5,0.3-0.6,0.5c-0.1,0.2,0,0.5,0.3,0.7l2.1,2.1c0.7,0.7,0.7,2,0,2.7l-2.3,2.3
		c-0.4,0.4-0.8,0.6-1.3,0.6c-0.5,0-1-0.2-1.4-0.6l-2.1-2.1c-0.2-0.2-0.5-0.3-0.7-0.3c-0.2,0.1-0.4,0.3-0.5,0.6l-0.7,2
		c-0.3,0.8,0,1.9,0.6,2.4l3.3,3.3c0.6,0.6,1.7,0.8,2.4,0.6l4.6-1.6c-0.3,0.9-0.1,1.9,0.6,2.6l10,10c0,0.1,0,0.2,0,0.3
		c0,2.9,2.4,5.3,5.3,5.3c2.9,0,5.3-2.4,5.3-5.3C-287.3,54.8-289.7,52.4-292.6,52.4z M-292.6,60.5c-1.5,0-2.8-1.2-2.8-2.8
		c0-0.7,0.3-1.4,0.8-2c0.5-0.5,1.2-0.8,2-0.8c1.5,0,2.8,1.2,2.8,2.8C-289.8,59.2-291.1,60.5-292.6,60.5z"/>
</g>
<g>
</g>
</svg>
