<svg id="goat-svg" xmlns="http://www.w3.org/2000/svg" height="748" width="746" version="1" viewBox="0 0 746 748"><path fill="#080" id="goat" d="M170.8 682.4c-14 3-29-1-43-3-4-1-5-6-7-9-2-4-8-4-9-8-3-15 3-32-4-47 1-13-3-25-9-36 0-5-1-10 1-15 7-7 14-13 21-20 3-7 5-14 8-20s-1-12 0-18c-5-3-10-4-14-7-3-1-6-6-9-4-6 3-7 9-10 14-5 6-9 13-16 17-8 3-8 13-12 20-2 11-13 18-12 29 1 6-2 11-3 16 1 12-10 25 0 36 5 5 6 13 10 19 3 4 9 5 12 9 2 4 1 8 0 11-7 0-13 5-20 4-5 0-8-4-13-3-8 0-19 0-23-8-2-5-7-9-12-11 3-3 3-8 4-11 2-6 7-10 6-16 0-21 1-42 0-63-3-2-6-5-5-9 4-6 12-9 16-16 3-5 7-11 7-17v-29c0-6-3-11-1-16 5-24 2-49 3-73 1-17-3-33-5-50-2-5-3-12-2-18 2-5 5-10 5-15-3-4-9-5-10-9-4-13 3-27-4-39-2-7-3-15-4-22h3c2 2 4 4 6 5-1-8-2-16-5-23h6c1 5 4 9 8 12-1-12 3-23 2-36 3 1 5 3 8 4 4-3 5-9 9-12 7 2 3 11 4 16 6-2 10-6 16-8 0 6 0 12 2 17 1 4 3 7 3 11 3 13-12 24-5 37 15-4 26-18 41-22 10-6 22-5 32-10 5-2 8 2 12 3 11 1 21 2 31 2 13 3 27 0 39 5 11 5 24 0 35 3 7 2 14 0 20 2 9 2 19 1 28-1 19-1 38 3 56-5 7 0 13 0 20-2 10 1 20-1 30-6 10-7 24 0 36-5 7-4 14-8 20-13s13-8 18-14c5-4 7-12 13-16 4-4 8-7 12-10 12-10 21-23 35-30 8-5 15-13 24-16 8-3 16-8 25-10 3-1 9-1 9-6-3-9-10-16-16-23-8-8-18-15-29-19-7-4-13-7-21-8v-5c29-3 58 8 80 27 3 3 7 6 11 8 3 4 5 8 6 12 4 1 9 4 13 5 5 0 9-3 13-4 4 0 7 2 10 4 0 6-9 10-6 16 6 6 9 15 12 23 1 7 2 14 8 18 6 5 9 12 12 19 8 8 14 17 21 26 4 4 7 8 13 10-1 7 3 17-4 22-4 3-1 10-6 13s-11 5-16 7c-7 0-15-4-22-1-5 4-10 8-16 10s-12 1-17 5-11-1-16 0c0-6 4-10 3-15-8-2-11-11-18-14-1 0-2 1-3 2-4-2-7-4-11-5-8 12-22 19-31 30-5 3-4 9-7 14-3 8-7 16-11 24-3 9-6 19-10 27-4 6-8 12-13 17 0 9-2 18-2 27-1 8-7 15-7 23 0 6-1 12-3 18-1 13-5 26-15 34-4 6-13 7-15 14-2 8-2 17-5 24-2 13-3 27-8 39-1 6 4 10 5 15 0 4-1 8-2 12 0 12-8 22-10 33v26c1 9 13 13 13 23 7 2 13 5 20 8 0 7 3 19-7 19-14-1-29 3-43-3-7-1-12-11-8-17-5-2-11-5-14-10-2-4 2-7 3-11 3-7 4-15 4-23 4-7 4-16 2-24-4-10-3-21-6-32-1-6 1-13 0-19-1-4-3-7-4-11-2-10-7-18-9-27-3 2-3 6-4 10-3 8-6 16-6 24 0 7-1 14-4 21l2 1c-1 1-2 1-3 2 0 9-3 17-2 26 1 7-4 13-1 20 3 10-2 22 7 29 7 9 21 16 17 29-12 4-26 4-39 1-6 0-12-3-16-8 0-3 2-6 2-9-1-2-3-4-4-6 0-5 3-9 3-13 2-14 5-28 3-42-2-3-4-7-4-11 0-7-3-15-2-22 1-5-3-9-3-14 0-8-3-16-2-24 0-3 1-8-3-8-9 1-17 4-26 5-6 0-12 3-18 4-15 2-31 0-47-2-9-4-19-1-29-4-12 2-21-9-32-11-4 11-13 21-20 30-5 7-12 12-17 20-4 7-12 8-18 13-8 5-15 13-19 21-1 19 0 39 5 57 8 13 20 24 36 29 0 2 0 6-1 8-2 5-8 5-12 6" transform="scale(-1,1) translate(-746,0)"/> <text x="300" y="450" font-family="Source Sans" font-size="250" style="fill: #FFF;">+1</text></svg>
